<svg width="23" height="22" viewBox="0 0 23 22" fill="none" xmlns="http://www.w3.org/2000/svg">
<g clip-path="url(#clip0)">
<path d="M17.8915 0.57135H5.25195C2.82881 0.57135 0.857422 2.54274 0.857422 4.96588V17.6054C0.857422 20.0285 2.82881 21.9999 5.25195 21.9999H17.8915C20.3146 21.9999 22.286 20.0285 22.286 17.6054V4.96588C22.286 2.54274 20.3146 0.57135 17.8915 0.57135ZM7.45545 17.0829C7.26189 17.4181 6.90944 17.6058 6.54754 17.6058C6.37013 17.6058 6.1905 17.5607 6.02614 17.4659C5.52651 17.1774 5.3547 16.5362 5.64315 16.0366L5.84894 15.6802H8.2653L7.45545 17.0829ZM5.48214 14.8431C4.9052 14.8431 4.43583 14.3737 4.43583 13.7968C4.43583 13.2199 4.9052 12.7505 5.48214 12.7505H7.54037L10.3635 7.86066L9.5984 6.53544C9.30995 6.0358 9.48171 5.39462 9.98135 5.10613H9.98139C10.481 4.81768 11.1222 4.98953 11.4107 5.48912L11.5717 5.76807L11.7328 5.48917C12.0213 4.98949 12.6625 4.81772 13.162 5.10617C13.4041 5.24592 13.5772 5.47155 13.6495 5.7415C13.7219 6.01145 13.6847 6.29345 13.545 6.53548L9.95674 12.7505H12.2201L13.4283 14.8431H5.48214ZM17.6613 14.8431H16.8112L17.5002 16.0365C17.7887 16.5361 17.6169 17.1773 17.1173 17.4658C16.9561 17.5589 16.7771 17.6065 16.5958 17.6065C16.5049 17.6065 16.4135 17.5946 16.3233 17.5704C16.0533 17.498 15.8277 17.3249 15.6879 17.0828L12.0549 10.7903L13.2631 8.69768L15.603 12.7505H17.6613C18.2382 12.7505 18.7076 13.2199 18.7076 13.7968C18.7076 14.3737 18.2382 14.8431 17.6613 14.8431Z" fill="#3A3A3A"/>
</g>
<defs>
<clipPath id="clip0">
<rect width="21.4286" height="21.4286" fill="white" transform="translate(0.857422 0.57135)"/>
</clipPath>
</defs>
</svg>
